<?xml version="1.0" encoding="UTF-8"?>
<svg xmlns="http://www.w3.org/2000/svg"
     xmlns:inkscape="http://www.inkscape.org/namespaces/inkscape"
     width="280" height="200" viewBox="0 0 280 200">
  <g id="layer1" inkscape:label="Layer 1">
    <g id="room_showcase" inkscape:label="Phong Showcase">
      <path id="room_boundary" d="M20 20 L250 20 L250 170 L20 170 Z"/>

      <g id="marker_bed" inkscape:label="prop_bed">
        <rect x="34" y="34" width="42" height="26"/>
      </g>
      <g id="marker_table" inkscape:label="prop_table">
        <rect x="105" y="42" width="26" height="22"/>
      </g>
      <g id="marker_chair" inkscape:label="prop_chair">
        <polygon points="138,43 152,43 152,57 138,57"/>
      </g>
      <g id="marker_sofa" inkscape:label="prop_sofa">
        <rect x="178" y="34" width="46" height="22"/>
      </g>
      <g id="marker_fridge" inkscape:label="prop_fridge">
        <rect x="222" y="78" width="18" height="24"/>
      </g>
      <g id="marker_sink" inkscape:label="prop_sink">
        <polygon points="184,78 212,78 212,96 184,96"/>
      </g>
      <g id="marker_kitchen_counter" inkscape:label="prop_kitchen_counter">
        <rect x="92" y="82" width="48" height="18"/>
      </g>
      <g id="marker_cabinet" inkscape:label="prop_cabinet">
        <rect x="38" y="82" width="24" height="18"/>
      </g>
      <g id="marker_locker" inkscape:label="prop_locker">
        <polygon points="38,125 58,125 58,152 38,152"/>
      </g>
      <g id="marker_plant" inkscape:label="prop_plant">
        <rect x="92" y="132" width="16" height="16"/>
      </g>
      <g id="marker_shelf_unit" inkscape:label="prop_shelf_unit">
        <rect x="142" y="126" width="34" height="16"/>
      </g>
      <g id="marker_wooden_crate" inkscape:label="prop_wooden_crate">
        <polyline points="210,132 226,132 226,148 210,148 210,132"/>
      </g>
    </g>
  </g>
</svg>
